<svg data-v-423bf9ae="" xmlns="http://www.w3.org/2000/svg" viewBox="0 0 267 90" class="iconLeftSlogan"><!----><!----><!----><g data-v-423bf9ae="" id="4d62a2af-a00f-4a98-8534-779c28c1d7a6" fill="#000000" transform="matrix(5.725191089769513,0,0,5.725191089769513,107.93892954772082,-20.78244335738514)"><path d="M3.44 14L3.44 14Q3.22 14 3.16 13.79L3.16 13.79L0.38 4.48L0.38 4.48Q0.36 4.44 0.36 4.38L0.36 4.38L0.36 4.38Q0.36 4.20 0.59 4.20L0.59 4.20L2.56 4.20L2.56 4.20Q2.79 4.20 2.84 4.42L2.84 4.42L4.42 10.64L4.42 10.64Q4.45 10.70 4.49 10.70L4.49 10.70L4.49 10.70Q4.52 10.70 4.54 10.64L4.54 10.64L6.09 4.42L6.09 4.42Q6.15 4.20 6.37 4.20L6.37 4.20L8.30 4.20L8.30 4.20Q8.44 4.20 8.50 4.27L8.50 4.27L8.50 4.27Q8.55 4.34 8.51 4.48L8.51 4.48L5.70 13.79L5.70 13.79Q5.64 14 5.40 14L5.40 14L3.44 14ZM10.74 6.29L10.74 6.29Q10.12 6.29 9.74 5.91L9.74 5.91L9.74 5.91Q9.37 5.54 9.37 4.94L9.37 4.94L9.37 4.94Q9.37 4.35 9.74 3.99L9.74 3.99L9.74 3.99Q10.12 3.63 10.74 3.63L10.74 3.63L10.74 3.63Q11.35 3.63 11.73 3.99L11.73 3.99L11.73 3.99Q12.11 4.35 12.11 4.94L12.11 4.94L12.11 4.94Q12.11 5.54 11.73 5.91L11.73 5.91L11.73 5.91Q11.35 6.29 10.74 6.29L10.74 6.29ZM9.83 14L9.83 14Q9.72 14 9.65 13.93L9.65 13.93L9.65 13.93Q9.58 13.86 9.58 13.75L9.58 13.75L9.58 7.01L9.58 7.01Q9.58 6.90 9.65 6.83L9.65 6.83L9.65 6.83Q9.72 6.76 9.83 6.76L9.83 6.76L11.65 6.76L11.65 6.76Q11.76 6.76 11.83 6.83L11.83 6.83L11.83 6.83Q11.90 6.90 11.90 7.01L11.90 7.01L11.90 13.75L11.90 13.75Q11.90 13.86 11.83 13.93L11.83 13.93L11.83 13.93Q11.76 14 11.65 14L11.65 14L9.83 14ZM17.26 6.65L17.26 6.65Q18.35 6.65 19.05 7.34L19.05 7.34L19.05 7.34Q19.74 8.04 19.74 9.23L19.74 9.23L19.74 13.75L19.74 13.75Q19.74 13.86 19.67 13.93L19.67 13.93L19.67 13.93Q19.60 14 19.49 14L19.49 14L17.67 14L17.67 14Q17.56 14 17.49 13.93L17.49 13.93L17.49 13.93Q17.42 13.86 17.42 13.75L17.42 13.75L17.42 9.73L17.42 9.73Q17.42 9.24 17.16 8.94L17.16 8.94L17.16 8.94Q16.90 8.64 16.46 8.64L16.46 8.64L16.46 8.64Q16.03 8.64 15.76 8.94L15.76 8.94L15.76 8.94Q15.50 9.24 15.50 9.73L15.50 9.73L15.50 13.75L15.50 13.75Q15.50 13.86 15.43 13.93L15.43 13.93L15.43 13.93Q15.36 14 15.25 14L15.25 14L13.43 14L13.43 14Q13.31 14 13.24 13.93L13.24 13.93L13.24 13.93Q13.17 13.86 13.17 13.75L13.17 13.75L13.17 7.01L13.17 7.01Q13.17 6.90 13.24 6.83L13.24 6.83L13.24 6.83Q13.31 6.76 13.43 6.76L13.43 6.76L15.25 6.76L15.25 6.76Q15.36 6.76 15.43 6.83L15.43 6.83L15.43 6.83Q15.50 6.90 15.50 7.01L15.50 7.01L15.50 7.41L15.50 7.41Q15.50 7.48 15.53 7.49L15.53 7.49L15.53 7.49Q15.57 7.50 15.60 7.45L15.60 7.45L15.60 7.45Q16.17 6.65 17.26 6.65L17.26 6.65ZM24.51 12.14L24.51 12.14Q24.95 12.14 25.32 12.00L25.32 12.00L25.32 12.00Q25.69 11.87 25.94 11.65L25.94 11.65L25.94 11.65Q26.03 11.55 26.12 11.55L26.12 11.55L26.12 11.55Q26.21 11.55 26.29 11.65L26.29 11.65L27.16 12.68L27.16 12.68Q27.24 12.78 27.24 12.87L27.24 12.87L27.24 12.87Q27.24 12.96 27.16 13.05L27.16 13.05L27.16 13.05Q26.68 13.55 25.96 13.83L25.96 13.83L25.96 13.83Q25.23 14.11 24.40 14.11L24.40 14.11L24.40 14.11Q23.45 14.11 22.71 13.77L22.71 13.77L22.71 13.77Q21.98 13.43 21.50 12.81L21.50 12.81L21.50 12.81Q20.73 11.83 20.73 10.32L20.73 10.32L20.73 10.32Q20.73 9.65 20.89 9.06L20.89 9.06L20.89 9.06Q21.20 7.97 22.09 7.30L22.09 7.30L22.09 7.30Q22.99 6.64 24.19 6.64L24.19 6.64L24.19 6.64Q25.59 6.64 26.45 7.50L26.45 7.50L26.45 7.50Q27.31 8.37 27.58 9.93L27.58 9.93L27.58 9.93Q27.64 10.32 27.66 10.78L27.66 10.78L27.66 10.78Q27.66 11.03 27.41 11.03L27.41 11.03L23.18 11.03L23.18 11.03Q23.14 11.03 23.11 11.06L23.11 11.06L23.11 11.06Q23.07 11.09 23.09 11.14L23.09 11.14L23.17 11.42L23.17 11.42Q23.31 11.76 23.66 11.95L23.66 11.95L23.66 11.95Q24.01 12.14 24.51 12.14L24.51 12.14ZM24.15 8.64L24.15 8.64Q23.44 8.64 23.18 9.32L23.18 9.32L23.18 9.32Q23.13 9.46 23.11 9.53L23.11 9.53L23.11 9.56L23.11 9.56Q23.11 9.65 23.21 9.65L23.21 9.65L25.13 9.65L25.13 9.65Q25.19 9.65 25.21 9.61L25.21 9.61L25.21 9.61Q25.23 9.58 25.21 9.53L25.21 9.53L25.16 9.35L25.16 9.35Q25.05 9.02 24.79 8.83L24.79 8.83L24.79 8.83Q24.54 8.64 24.15 8.64L24.15 8.64Z"></path></g><defs data-v-423bf9ae=""><linearGradient data-v-423bf9ae="" gradientTransform="rotate(25)" id="9cbc96c9-f698-4327-a434-97c7375dd980" x1="0%" y1="0%" x2="100%" y2="0%"><stop data-v-423bf9ae="" offset="0%" style="stop-color: rgb(18, 38, 99); stop-opacity: 1;"></stop><stop data-v-423bf9ae="" offset="100%" style="stop-color: rgb(93, 215, 173); stop-opacity: 1;"></stop></linearGradient></defs><g data-v-423bf9ae="" id="9cbbd13c-c1a6-4cef-87d4-380059f4f07b" transform="matrix(2.8125,0,0,2.8125,0,0)" stroke="none" fill="url(#9cbc96c9-f698-4327-a434-97c7375dd980)"><path d="M16 32c8.837 0 16-7.163 16-16S24.837 0 16 0 0 7.163 0 16s7.163 16 16 16zM14.817 6.421h2v8.886h8.887v2H14.817V6.421zm-5.959.437h2v14.283h14.283v2H8.858V6.858z"></path></g><!----><g data-v-423bf9ae="" id="36f6a2bc-6973-480f-9061-9648e82af332" fill="#000000" transform="matrix(0.7638717578426634,0,0,0.7638717578426634,109.46528898108231,57.08964726025561)"><path d="M9.53 3.92L8.90 3.92L7.69 3.92L7.69 4.19C7.69 4.34 7.78 4.42 7.97 4.44L8.11 4.44C8.18 4.44 8.29 4.45 8.43 4.45C8.57 4.45 8.74 4.47 8.90 4.47L8.90 12.22C8.90 12.35 8.90 12.49 8.92 12.63L2.51 4.05C2.46 3.99 2.44 3.95 2.39 3.93C2.35 3.92 2.31 3.91 2.24 3.91L1.89 3.91L0.70 3.91L0.70 4.19C0.70 4.34 0.80 4.42 0.98 4.44L1.12 4.44C1.19 4.44 1.29 4.45 1.43 4.45C1.57 4.45 1.72 4.47 1.89 4.47L1.89 13.26C1.72 13.26 1.57 13.27 1.43 13.27C1.29 13.27 1.19 13.29 1.12 13.29L0.98 13.29C0.80 13.30 0.70 13.38 0.70 13.54L0.70 13.82L1.89 13.82L2.51 13.82L3.72 13.82L3.72 13.54C3.72 13.38 3.63 13.30 3.44 13.29L3.30 13.29C3.23 13.29 3.11 13.27 2.97 13.27C2.83 13.27 2.67 13.26 2.51 13.26L2.51 5.49C2.51 5.36 2.51 5.22 2.49 5.08L8.93 13.68C9.00 13.78 9.07 13.82 9.18 13.82L9.53 13.82L9.53 4.47C9.70 4.47 9.84 4.45 9.98 4.45C10.12 4.45 10.23 4.44 10.30 4.44L10.43 4.44C10.61 4.42 10.71 4.34 10.71 4.19L10.71 3.92ZM25.87 3.92L25.52 3.92L19.94 3.92L18.75 3.92L18.75 4.19C18.75 4.34 18.84 4.42 19.03 4.44L19.17 4.44C19.24 4.44 19.33 4.45 19.47 4.45C19.61 4.45 19.77 4.47 19.94 4.47L19.94 13.26C19.77 13.26 19.61 13.27 19.47 13.27C19.33 13.27 19.24 13.29 19.17 13.29L19.03 13.29C18.84 13.30 18.75 13.38 18.75 13.54L18.75 13.82L19.94 13.82L20.65 13.82L21.83 13.82L21.83 13.54C21.83 13.38 21.74 13.30 21.56 13.29L21.42 13.29C21.35 13.29 21.25 13.27 21.11 13.27C20.97 13.27 20.82 13.26 20.65 13.26L20.65 9.27L24.35 9.27L24.35 8.67L20.65 8.67L20.65 4.51L25.26 4.51C25.28 5.18 25.31 5.56 25.31 5.63C25.33 5.85 25.42 5.96 25.62 5.96L25.96 5.96L25.96 3.92ZM41.80 3.92L41.61 3.92L34.31 3.92L34.10 3.92L34.01 3.92L34.01 5.96L34.36 5.96C34.55 5.96 34.64 5.85 34.65 5.63C34.65 5.53 34.68 5.17 34.71 4.52L37.60 4.52L37.60 13.26C37.44 13.26 37.30 13.27 37.16 13.27C37.02 13.27 36.90 13.29 36.83 13.29L36.71 13.29C36.53 13.30 36.43 13.38 36.43 13.54L36.43 13.82L37.60 13.82L38.32 13.82L39.51 13.82L39.51 13.54C39.51 13.38 39.41 13.30 39.23 13.29L39.09 13.29C39.02 13.29 38.92 13.27 38.78 13.27C38.64 13.27 38.49 13.26 38.32 13.26L38.32 4.52L41.20 4.52C41.24 5.24 41.26 5.60 41.26 5.63C41.27 5.85 41.37 5.96 41.57 5.96L41.90 5.96L41.90 3.92ZM68.38 13.29L68.28 13.29L68.10 13.29C68.01 13.29 67.93 13.27 67.84 13.27L64.88 9.53C64.79 9.42 64.68 9.32 64.57 9.25C65.00 9.21 65.39 9.11 65.74 8.96C66.09 8.81 66.37 8.61 66.63 8.37C66.86 8.13 67.06 7.85 67.19 7.55C67.31 7.24 67.38 6.89 67.38 6.51C67.38 5.66 67.10 5.03 66.54 4.58C65.98 4.14 65.13 3.92 63.98 3.92L61.57 3.92L60.40 3.92L60.40 4.19C60.40 4.34 60.48 4.42 60.66 4.44L60.80 4.44C60.87 4.44 60.97 4.45 61.11 4.45C61.25 4.45 61.40 4.47 61.57 4.47L61.57 13.26C61.40 13.26 61.25 13.27 61.11 13.27C60.97 13.27 60.87 13.29 60.80 13.29L60.66 13.29C60.48 13.30 60.38 13.38 60.38 13.54L60.38 13.82L61.57 13.82L62.29 13.82L63.46 13.82L63.46 13.54C63.46 13.38 63.36 13.30 63.18 13.29L63.04 13.29C62.97 13.29 62.87 13.27 62.73 13.27C62.59 13.27 62.45 13.26 62.29 13.26L62.29 9.34L63.46 9.34C63.66 9.34 63.80 9.35 63.88 9.39C63.97 9.44 64.05 9.52 64.13 9.62L67.31 13.64C67.37 13.71 67.41 13.75 67.47 13.78C67.52 13.80 67.59 13.82 67.66 13.82L67.73 13.82L68.28 13.82L68.64 13.82L68.64 13.54C68.64 13.38 68.56 13.30 68.38 13.29ZM63.88 8.81L62.29 8.81L62.29 4.48L63.98 4.48C64.86 4.48 65.53 4.66 66.00 5.00C66.46 5.33 66.68 5.87 66.68 6.57C66.68 6.92 66.63 7.21 66.50 7.49C66.37 7.77 66.18 7.99 65.94 8.19C65.70 8.39 65.41 8.55 65.06 8.65C64.71 8.75 64.32 8.81 63.88 8.81ZM78.04 3.92L76.85 3.92L76.85 4.19C76.85 4.34 76.94 4.42 77.13 4.44L77.27 4.44C77.34 4.44 77.43 4.45 77.57 4.45C77.71 4.45 77.87 4.47 78.04 4.47L78.04 13.26C77.87 13.26 77.71 13.27 77.57 13.27C77.43 13.27 77.34 13.29 77.27 13.29L77.13 13.29C76.94 13.30 76.86 13.38 76.86 13.54L76.86 13.82L78.04 13.82L83.97 13.82L83.97 13.22L83.97 11.76L83.62 11.76C83.43 11.76 83.34 11.89 83.33 12.11C83.33 12.14 83.31 12.19 83.31 12.29C83.31 12.39 83.31 12.53 83.30 12.74C83.29 12.95 83.27 13.09 83.27 13.22L78.75 13.22L78.75 9.09L82.70 9.09L82.70 8.51L78.75 8.51L78.75 4.51L83.27 4.51C83.30 5.12 83.33 5.50 83.33 5.63C83.34 5.85 83.43 5.96 83.62 5.96L83.97 5.96L83.97 4.51L83.97 3.92ZM101.39 3.92L100.76 3.92L99.54 3.92L99.54 4.19C99.54 4.34 99.64 4.42 99.82 4.44L99.96 4.44C100.03 4.44 100.14 4.45 100.28 4.45C100.42 4.45 100.59 4.47 100.76 4.47L100.76 12.22C100.76 12.35 100.76 12.49 100.77 12.63L94.36 4.05C94.32 3.99 94.29 3.95 94.25 3.93C94.21 3.92 94.16 3.91 94.09 3.91L93.74 3.91L92.55 3.91L92.55 4.19C92.55 4.34 92.65 4.42 92.83 4.44L92.97 4.44C93.04 4.44 93.14 4.45 93.28 4.45C93.42 4.45 93.58 4.47 93.74 4.47L93.74 13.26C93.58 13.26 93.42 13.27 93.28 13.27C93.14 13.27 93.04 13.29 92.97 13.29L92.83 13.29C92.65 13.30 92.55 13.38 92.55 13.54L92.55 13.82L93.74 13.82L94.36 13.82L95.58 13.82L95.58 13.54C95.58 13.38 95.48 13.30 95.30 13.29L95.16 13.29C95.09 13.29 94.96 13.27 94.82 13.27C94.68 13.27 94.53 13.26 94.36 13.26L94.36 5.49C94.36 5.36 94.36 5.22 94.35 5.08L100.79 13.68C100.86 13.78 100.93 13.82 101.04 13.82L101.39 13.82L101.39 4.47C101.56 4.47 101.70 4.45 101.84 4.45C101.98 4.45 102.09 4.44 102.16 4.44L102.28 4.44C102.47 4.42 102.56 4.34 102.56 4.19L102.56 3.92ZM118.12 3.92L117.92 3.92L110.63 3.92L110.42 3.92L110.32 3.92L110.32 5.96L110.67 5.96C110.87 5.96 110.95 5.85 110.96 5.63C110.96 5.53 110.99 5.17 111.02 4.52L113.92 4.52L113.92 13.26C113.75 13.26 113.61 13.27 113.47 13.27C113.33 13.27 113.22 13.29 113.15 13.29L113.02 13.29C112.84 13.30 112.74 13.38 112.74 13.54L112.74 13.82L113.92 13.82L114.63 13.82L115.82 13.82L115.82 13.54C115.82 13.38 115.72 13.30 115.54 13.29L115.40 13.29C115.33 13.29 115.23 13.27 115.09 13.27C114.95 13.27 114.80 13.26 114.63 13.26L114.63 4.52L117.52 4.52C117.56 5.24 117.57 5.60 117.57 5.63C117.59 5.85 117.68 5.96 117.88 5.96L118.22 5.96L118.22 3.92ZM134.81 13.22L134.34 13.17L130.56 3.91L129.85 3.91L126.06 13.17L125.61 13.22C125.43 13.23 125.34 13.33 125.34 13.50L125.34 13.82L125.79 13.82L126.08 13.82L126.34 13.82L126.43 13.82L127.75 13.82L127.75 13.50C127.75 13.31 127.64 13.23 127.43 13.22C127.41 13.22 127.39 13.20 127.34 13.20C127.30 13.20 127.25 13.19 127.15 13.19C127.05 13.19 126.92 13.19 126.78 13.17L127.76 10.75L127.83 10.57L132.57 10.57L132.64 10.75L133.62 13.17C133.48 13.19 133.36 13.19 133.27 13.19C133.17 13.19 133.10 13.20 133.06 13.20C133.01 13.20 132.99 13.22 132.97 13.22C132.76 13.23 132.65 13.31 132.65 13.50L132.65 13.82L133.97 13.82L134.06 13.82L134.33 13.82L134.61 13.82L135.07 13.82L135.07 13.50C135.07 13.33 134.99 13.23 134.81 13.22ZM130.00 5.22C130.03 5.14 130.07 5.04 130.10 4.94C130.13 4.84 130.17 4.75 130.20 4.63C130.23 4.75 130.27 4.84 130.30 4.94C130.33 5.04 130.37 5.12 130.40 5.21L132.36 10.04L128.06 10.04ZM149.67 11.97C149.48 11.97 149.39 12.08 149.38 12.31C149.38 12.32 149.38 12.38 149.37 12.43C149.35 12.49 149.35 12.59 149.34 12.71C149.32 12.84 149.31 13.01 149.30 13.20L145.21 13.20L145.21 4.47C145.38 4.47 145.52 4.45 145.66 4.45C145.80 4.45 145.91 4.44 145.98 4.44L146.10 4.44C146.29 4.42 146.38 4.34 146.38 4.19L146.38 3.92L145.21 3.92L144.49 3.92L143.30 3.92L143.30 4.19C143.30 4.34 143.40 4.42 143.58 4.44L143.72 4.44C143.79 4.44 143.89 4.45 144.03 4.45C144.17 4.45 144.33 4.47 144.49 4.47L144.49 13.26C144.33 13.26 144.17 13.27 144.03 13.27C143.89 13.27 143.79 13.29 143.72 13.29L143.58 13.29C143.40 13.30 143.30 13.38 143.30 13.54L143.30 13.82L144.49 13.82L149.77 13.82L149.90 13.82L150.02 13.82L150.02 13.55L150.02 12.99L150.02 11.97L149.74 11.97ZM164.18 9.91C164.04 9.65 163.84 9.39 163.60 9.21C163.37 9.03 163.11 8.88 162.82 8.75C162.53 8.62 162.20 8.51 161.90 8.41C161.59 8.32 161.28 8.20 160.99 8.11C160.69 7.99 160.43 7.87 160.19 7.71C159.95 7.56 159.77 7.38 159.63 7.15C159.49 6.93 159.40 6.65 159.40 6.31C159.40 6.06 159.46 5.82 159.56 5.59C159.66 5.35 159.80 5.15 159.98 4.97C160.16 4.79 160.38 4.65 160.66 4.55C160.94 4.45 161.25 4.40 161.62 4.40C162.29 4.40 162.90 4.51 163.46 4.75C163.51 5.54 163.53 5.99 163.53 6.06C163.55 6.29 163.63 6.41 163.83 6.41L164.16 6.41L164.16 4.38C163.28 4.00 162.44 3.81 161.62 3.81C161.15 3.81 160.75 3.88 160.38 4.02C160.02 4.16 159.73 4.34 159.49 4.58C159.25 4.82 159.05 5.08 158.93 5.39C158.80 5.70 158.75 6.02 158.75 6.36C158.75 6.78 158.82 7.14 158.96 7.42C159.10 7.70 159.29 7.92 159.53 8.12C159.77 8.32 160.02 8.46 160.31 8.58C160.61 8.71 160.93 8.82 161.24 8.92C161.55 9.02 161.84 9.11 162.15 9.21C162.44 9.31 162.71 9.45 162.95 9.60C163.18 9.76 163.37 9.94 163.51 10.16C163.65 10.39 163.72 10.68 163.72 11.03C163.72 11.35 163.66 11.66 163.55 11.94C163.44 12.22 163.28 12.46 163.07 12.67C162.86 12.88 162.60 13.05 162.29 13.16C161.98 13.29 161.63 13.33 161.24 13.33C160.45 13.33 159.80 13.20 159.26 12.95C159.25 12.75 159.25 12.54 159.24 12.32C159.22 12.10 159.22 11.91 159.21 11.76C159.19 11.61 159.19 11.52 159.19 11.51C159.18 11.28 159.08 11.17 158.89 11.17L158.55 11.17L158.55 13.02L158.55 13.20L158.55 13.38C159.40 13.75 160.29 13.93 161.21 13.93C161.71 13.93 162.16 13.85 162.55 13.69C162.95 13.54 163.28 13.31 163.55 13.05C163.81 12.78 164.04 12.46 164.18 12.10C164.32 11.73 164.39 11.34 164.39 10.92C164.39 10.51 164.32 10.18 164.18 9.91Z"></path></g></svg>