<svg data-v-fde0c5aa="" xmlns="http://www.w3.org/2000/svg" viewBox="0 0 300 300" class="font"><!----><defs data-v-fde0c5aa=""><!----></defs><rect data-v-fde0c5aa="" fill="transparent" x="0" y="0" width="300px" height="300px" class="logo-background-square"></rect><defs data-v-fde0c5aa=""><linearGradient data-v-fde0c5aa="" gradientTransform="rotate(25)" id="69c08dbe-c77b-4677-9e93-5e5323823a6f" x1="0%" y1="0%" x2="100%" y2="0%"><stop data-v-fde0c5aa="" offset="0%" stop-color="#122663" stop-opacity="1"></stop><stop data-v-fde0c5aa="" offset="100%" stop-color="#5DD7AD" stop-opacity="1"></stop></linearGradient></defs><g data-v-fde0c5aa="" id="9bac05a2-7892-4bf2-8522-e8f5d3503407" fill="url(#69c08dbe-c77b-4677-9e93-5e5323823a6f)" transform="matrix(8.058608283817955,0,0,8.058608283817955,37.098900902546234,78.52014544476927)"><path d="M3.44 14L3.44 14Q3.22 14 3.16 13.79L3.16 13.79L0.38 4.48L0.38 4.48Q0.36 4.44 0.36 4.38L0.36 4.38L0.36 4.38Q0.36 4.20 0.59 4.20L0.59 4.20L2.56 4.20L2.56 4.20Q2.79 4.20 2.84 4.42L2.84 4.42L4.42 10.64L4.42 10.64Q4.45 10.70 4.49 10.70L4.49 10.70L4.49 10.70Q4.52 10.70 4.54 10.64L4.54 10.64L6.09 4.42L6.09 4.42Q6.15 4.20 6.37 4.20L6.37 4.20L8.30 4.20L8.30 4.20Q8.44 4.20 8.50 4.27L8.50 4.27L8.50 4.27Q8.55 4.34 8.51 4.48L8.51 4.48L5.70 13.79L5.70 13.79Q5.64 14 5.40 14L5.40 14L3.44 14ZM10.74 6.29L10.74 6.29Q10.12 6.29 9.74 5.91L9.74 5.91L9.74 5.91Q9.37 5.54 9.37 4.94L9.37 4.94L9.37 4.94Q9.37 4.35 9.74 3.99L9.74 3.99L9.74 3.99Q10.12 3.63 10.74 3.63L10.74 3.63L10.74 3.63Q11.35 3.63 11.73 3.99L11.73 3.99L11.73 3.99Q12.11 4.35 12.11 4.94L12.11 4.94L12.11 4.94Q12.11 5.54 11.73 5.91L11.73 5.91L11.73 5.91Q11.35 6.29 10.74 6.29L10.74 6.29ZM9.83 14L9.83 14Q9.72 14 9.65 13.93L9.65 13.93L9.65 13.93Q9.58 13.86 9.58 13.75L9.58 13.75L9.58 7.01L9.58 7.01Q9.58 6.90 9.65 6.83L9.65 6.83L9.65 6.83Q9.72 6.76 9.83 6.76L9.83 6.76L11.65 6.76L11.65 6.76Q11.76 6.76 11.83 6.83L11.83 6.83L11.83 6.83Q11.90 6.90 11.90 7.01L11.90 7.01L11.90 13.75L11.90 13.75Q11.90 13.86 11.83 13.93L11.83 13.93L11.83 13.93Q11.76 14 11.65 14L11.65 14L9.83 14ZM17.26 6.65L17.26 6.65Q18.35 6.65 19.05 7.34L19.05 7.34L19.05 7.34Q19.74 8.04 19.74 9.23L19.74 9.23L19.74 13.75L19.74 13.75Q19.74 13.86 19.67 13.93L19.67 13.93L19.67 13.93Q19.60 14 19.49 14L19.49 14L17.67 14L17.67 14Q17.56 14 17.49 13.93L17.49 13.93L17.49 13.93Q17.42 13.86 17.42 13.75L17.42 13.75L17.42 9.73L17.42 9.73Q17.42 9.24 17.16 8.94L17.16 8.94L17.16 8.94Q16.90 8.64 16.46 8.64L16.46 8.64L16.46 8.64Q16.03 8.64 15.76 8.94L15.76 8.94L15.76 8.94Q15.50 9.24 15.50 9.73L15.50 9.73L15.50 13.75L15.50 13.75Q15.50 13.86 15.43 13.93L15.43 13.93L15.43 13.93Q15.36 14 15.25 14L15.25 14L13.43 14L13.43 14Q13.31 14 13.24 13.93L13.24 13.93L13.24 13.93Q13.17 13.86 13.17 13.75L13.17 13.75L13.17 7.01L13.17 7.01Q13.17 6.90 13.24 6.83L13.24 6.83L13.24 6.83Q13.31 6.76 13.43 6.76L13.43 6.76L15.25 6.76L15.25 6.76Q15.36 6.76 15.43 6.83L15.43 6.83L15.43 6.83Q15.50 6.90 15.50 7.01L15.50 7.01L15.50 7.41L15.50 7.41Q15.50 7.48 15.53 7.49L15.53 7.49L15.53 7.49Q15.57 7.50 15.60 7.45L15.60 7.45L15.60 7.45Q16.17 6.65 17.26 6.65L17.26 6.65ZM24.51 12.14L24.51 12.14Q24.95 12.14 25.32 12.00L25.32 12.00L25.32 12.00Q25.69 11.87 25.94 11.65L25.94 11.65L25.94 11.65Q26.03 11.55 26.12 11.55L26.12 11.55L26.12 11.55Q26.21 11.55 26.29 11.65L26.29 11.65L27.16 12.68L27.16 12.68Q27.24 12.78 27.24 12.87L27.24 12.87L27.24 12.87Q27.24 12.96 27.16 13.05L27.16 13.05L27.16 13.05Q26.68 13.55 25.96 13.83L25.96 13.83L25.96 13.83Q25.23 14.11 24.40 14.11L24.40 14.11L24.40 14.11Q23.45 14.11 22.71 13.77L22.71 13.77L22.71 13.77Q21.98 13.43 21.50 12.81L21.50 12.81L21.50 12.81Q20.73 11.83 20.73 10.32L20.73 10.32L20.73 10.32Q20.73 9.65 20.89 9.06L20.89 9.06L20.89 9.06Q21.20 7.97 22.09 7.30L22.09 7.30L22.09 7.30Q22.99 6.64 24.19 6.64L24.19 6.64L24.19 6.64Q25.59 6.64 26.45 7.50L26.45 7.50L26.45 7.50Q27.31 8.37 27.58 9.93L27.58 9.93L27.58 9.93Q27.64 10.32 27.66 10.78L27.66 10.78L27.66 10.78Q27.66 11.03 27.41 11.03L27.41 11.03L23.18 11.03L23.18 11.03Q23.14 11.03 23.11 11.06L23.11 11.06L23.11 11.06Q23.07 11.09 23.09 11.14L23.09 11.14L23.17 11.42L23.17 11.42Q23.31 11.76 23.66 11.95L23.66 11.95L23.66 11.95Q24.01 12.14 24.51 12.14L24.51 12.14ZM24.15 8.64L24.15 8.64Q23.44 8.64 23.18 9.32L23.18 9.32L23.18 9.32Q23.13 9.46 23.11 9.53L23.11 9.53L23.11 9.56L23.11 9.56Q23.11 9.65 23.21 9.65L23.21 9.65L25.13 9.65L25.13 9.65Q25.19 9.65 25.21 9.61L25.21 9.61L25.21 9.61Q25.23 9.58 25.21 9.53L25.21 9.53L25.16 9.35L25.16 9.35Q25.05 9.02 24.79 8.83L24.79 8.83L24.79 8.83Q24.54 8.64 24.15 8.64L24.15 8.64Z"></path></g><!----><!----></svg>